<svg width="1521" height="713" viewBox="0 0 1521 713" fill="none" xmlns="http://www.w3.org/2000/svg">
<path d="M945.58 299.447C948.395 299.447 950.826 300.471 952.873 302.518C954.921 304.565 955.944 306.996 955.944 309.811V348.582C955.944 351.397 954.921 353.828 952.873 355.875C950.826 357.922 948.395 358.946 945.58 358.946H910.648C887.105 358.946 875.333 370.718 875.333 394.262V488.692C875.333 491.507 874.309 493.938 872.262 495.986C870.215 498.033 867.783 499.057 864.968 499.057H816.602C813.786 499.057 811.355 498.033 809.308 495.986C807.261 493.938 806.237 491.507 806.237 488.692V309.811C806.237 306.996 807.261 304.565 809.308 302.518C811.355 300.471 813.786 299.447 816.602 299.447H861.13C863.945 299.447 866.376 300.471 868.423 302.518C870.47 304.565 871.494 306.996 871.494 309.811V318.64C877.38 313.01 884.418 308.404 892.607 304.821C901.052 301.238 911.032 299.447 922.548 299.447H945.58Z" fill="#323232"/>
<path d="M588.691 438.204C588.691 421.314 595.089 407.367 607.884 396.363C620.936 385.359 642.048 377.298 671.222 372.179L716.134 364.502C716.134 358.36 714.471 353.37 711.144 349.531C707.817 345.437 702.059 343.389 693.87 343.389C687.984 343.389 683.378 344.285 680.051 346.077C676.98 347.612 674.677 349.02 673.141 350.299C670.838 352.346 668.663 353.626 666.616 354.138C664.568 354.65 662.137 354.905 659.322 354.905H610.571C608.012 354.905 605.837 354.138 604.046 352.602C602.51 351.067 601.87 349.02 602.126 346.46C602.638 340.574 605.197 334.433 609.804 328.035C614.41 321.637 620.68 315.751 628.613 310.377C636.802 305.003 646.399 300.525 657.403 296.942C668.663 293.359 680.818 291.568 693.87 291.568C709.48 291.568 723.044 293.487 734.56 297.326C746.075 301.164 755.544 306.539 762.965 313.448C770.643 320.102 776.273 328.163 779.855 337.632C783.438 346.844 785.23 357.081 785.23 368.341V487.345C785.23 490.16 784.206 492.591 782.159 494.639C780.111 496.686 777.68 497.71 774.865 497.71H726.498C723.683 497.71 721.252 496.686 719.205 494.639C717.158 492.591 716.134 490.16 716.134 487.345V473.903C709.992 481.581 702.315 487.722 693.102 492.329C684.145 496.679 672.246 498.855 657.403 498.855C646.399 498.855 636.546 497.319 627.845 494.248C619.4 491.177 612.235 486.955 606.349 481.581C600.719 476.207 596.368 469.809 593.297 462.387C590.227 454.966 588.691 446.905 588.691 438.204ZM676.212 447.033C681.842 447.033 687.088 446.137 691.951 444.346C696.813 442.299 701.035 439.611 704.618 436.285C708.201 432.958 711.016 429.119 713.063 424.769C715.11 420.162 716.134 415.3 716.134 410.182L680.819 415.556C673.909 416.836 668.279 419.011 663.928 422.082C659.834 425.153 657.787 429.119 657.787 433.981C657.787 438.844 659.322 442.299 662.393 444.346C665.72 446.137 670.326 447.033 676.212 447.033Z" fill="#323232"/>
<path d="M1047.49 488.692C1047.49 491.507 1046.47 493.938 1044.42 495.986C1042.37 498.033 1039.94 499.057 1037.13 499.057H986.842C984.027 499.057 981.596 498.033 979.548 495.986C977.501 493.938 976.477 491.507 976.477 488.692V438.406C976.477 435.591 977.501 433.16 979.548 431.113C981.596 429.065 984.027 428.042 986.842 428.042H1037.13C1039.94 428.042 1042.37 429.065 1044.42 431.113C1046.47 433.16 1047.49 435.591 1047.49 438.406V488.692Z" fill="#323232"/>
<path d="M1047.49 488.692C1047.49 491.507 1046.47 493.938 1044.42 495.986C1042.37 498.033 1039.94 499.057 1037.13 499.057H986.842C984.027 499.057 981.596 498.033 979.548 495.986C977.501 493.938 976.477 491.507 976.477 488.692V438.406C976.477 435.591 977.501 433.16 979.548 431.113C981.596 429.065 984.027 428.042 986.842 428.042H1037.13C1039.94 428.042 1042.37 429.065 1044.42 431.113C1046.47 433.16 1047.49 435.591 1047.49 438.406V488.692Z" fill="#323232"/>
<path d="M1136.92 488.692C1136.92 491.507 1135.9 493.938 1133.85 495.986C1131.8 498.033 1129.37 499.057 1126.56 499.057H1078.19C1075.37 499.057 1072.94 498.033 1070.9 495.986C1068.85 493.938 1067.82 491.507 1067.82 488.692V309.811C1067.82 306.996 1068.85 304.565 1070.9 302.518C1072.94 300.471 1075.37 299.447 1078.19 299.447H1126.56C1129.37 299.447 1131.8 300.471 1133.85 302.518C1135.9 304.565 1136.92 306.996 1136.92 309.811V488.692ZM1136.92 262.583C1136.92 265.398 1135.9 267.829 1133.85 269.876C1131.8 271.923 1129.37 272.947 1126.56 272.947H1078.19C1075.37 272.947 1072.94 271.923 1070.9 269.876C1068.85 267.829 1067.82 265.398 1067.82 262.583V223.812C1067.82 220.997 1068.85 218.566 1070.9 216.519C1072.94 214.472 1075.37 213.448 1078.19 213.448H1126.56C1129.37 213.448 1131.8 214.472 1133.85 216.519C1135.9 218.566 1136.92 220.997 1136.92 223.812V262.583Z" fill="#323232"/>
<path d="M1366.97 381.298C1367.23 385.136 1367.35 390.127 1367.35 396.268C1367.35 402.154 1367.23 407.017 1366.97 410.855C1366.46 423.139 1363.64 434.655 1358.53 445.403C1353.41 456.151 1346.37 465.62 1337.41 473.809C1328.46 481.742 1317.58 488.012 1304.79 492.618C1292.25 497.225 1278.17 499.528 1262.56 499.528C1246.95 499.528 1232.75 497.225 1219.95 492.618C1207.41 488.012 1196.66 481.742 1187.71 473.809C1178.75 465.62 1171.71 456.151 1166.59 445.403C1161.48 434.655 1158.66 423.139 1158.15 410.855C1157.89 407.017 1157.77 402.154 1157.77 396.268C1157.77 390.127 1157.89 385.136 1158.15 381.298C1158.4 369.014 1161.09 357.498 1166.21 346.75C1171.33 336.002 1178.37 326.661 1187.32 318.728C1196.54 310.539 1207.41 304.141 1219.95 299.535C1232.75 294.672 1246.95 292.241 1262.56 292.241C1278.17 292.241 1292.25 294.672 1304.79 299.535C1317.58 304.141 1328.46 310.539 1337.41 318.728C1346.63 326.661 1353.66 336.002 1358.53 346.75C1363.64 357.498 1366.46 369.014 1366.97 381.298ZM1227.24 408.936C1228.01 418.661 1231.47 426.338 1237.61 431.968C1244.01 437.342 1252.32 440.029 1262.56 440.029C1272.8 440.029 1280.99 437.342 1287.13 431.968C1293.53 426.338 1297.11 418.661 1297.88 408.936C1298.39 405.097 1298.64 400.747 1298.64 395.885C1298.64 391.022 1298.39 386.672 1297.88 382.833C1297.11 373.109 1293.53 365.559 1287.13 360.185C1280.99 354.555 1272.8 351.74 1262.56 351.74C1252.32 351.74 1244.01 354.555 1237.61 360.185C1231.47 365.559 1228.01 373.109 1227.24 382.833C1226.73 386.672 1226.48 391.022 1226.48 395.885C1226.48 400.747 1226.73 405.097 1227.24 408.936Z" fill="#323232"/>
<path d="M490.455 381.032C490.455 288.478 415.856 213.448 323.835 213.448C231.813 213.448 153.645 288.478 153.645 381.032V485.628C153.635 489.175 155.031 492.579 157.525 495.087C160.018 497.595 163.403 498.999 166.929 498.989H185.906C189.433 498.999 192.817 497.595 195.311 495.087C197.804 492.579 199.201 489.175 199.191 485.628V398.744C199.191 391.365 205.138 385.383 212.475 385.383H239.498C246.835 385.383 252.782 391.365 252.782 398.744V485.628C252.772 489.175 254.168 492.579 256.662 495.087C259.155 497.595 262.54 498.999 266.066 498.989H285.044C288.57 498.999 291.955 497.595 294.448 495.087C296.941 492.579 298.338 489.175 298.328 485.628V459.25C298.328 432.86 312.326 408.475 335.049 395.28C357.772 382.085 385.768 382.085 408.491 395.28C431.214 408.475 445.212 432.86 445.212 459.25V485.628C445.212 493.007 451.159 498.989 458.496 498.989H477.247C484.583 498.989 490.531 493.007 490.531 485.628L490.455 381.032ZM249.556 345.359C247.07 349.393 243.661 352.77 239.612 355.208C232.557 359.279 224.086 360.046 216.422 357.308C215.308 356.961 214.248 356.46 213.272 355.819C204.518 350.984 199.077 341.737 199.077 331.693C199.077 321.648 204.518 312.401 213.272 307.567C214.294 306.911 215.406 306.409 216.574 306.078C226.536 302.555 237.624 305.043 245.153 312.491C250.447 317.408 253.448 324.331 253.428 331.578C253.419 336.442 252.08 341.21 249.556 345.359Z" fill="#171717"/>
<path d="M505.271 381.032C505.271 288.478 430.672 213.448 338.65 213.448C246.629 213.448 168.461 288.478 168.461 381.032V485.628C168.451 489.175 169.847 492.579 172.341 495.087C174.834 497.595 178.219 498.999 181.745 498.989H200.722C204.248 498.999 207.633 497.595 210.127 495.087C212.62 492.579 214.016 489.175 214.006 485.628V398.744C214.006 391.365 219.954 385.383 227.29 385.383H254.314C261.651 385.383 267.598 391.365 267.598 398.744V485.628C267.588 489.175 268.984 492.579 271.478 495.087C273.971 497.595 277.356 498.999 280.882 498.989H299.859C303.386 498.999 306.77 497.595 309.264 495.087C311.757 492.579 313.154 489.175 313.143 485.628V459.25C313.143 432.86 327.141 408.475 349.864 395.28C372.587 382.085 400.583 382.085 423.306 395.28C446.029 408.475 460.027 432.86 460.027 459.25V485.628C460.027 493.007 465.975 498.989 473.311 498.989H492.062C499.399 498.989 505.347 493.007 505.347 485.628L505.271 381.032ZM264.372 345.359C261.886 349.393 258.476 352.77 254.428 355.208C247.373 359.279 238.902 360.046 231.238 357.308C230.124 356.961 229.064 356.46 228.087 355.819C219.333 350.984 213.893 341.737 213.893 331.693C213.893 321.648 219.333 312.401 228.087 307.567C229.11 306.911 230.222 306.409 231.389 306.078C241.352 302.555 252.44 305.043 259.969 312.491C265.262 317.408 268.264 324.331 268.243 331.578C268.235 336.442 266.896 341.21 264.372 345.359Z" fill="#323232"/>
</svg>
