<svg width="714" height="714" viewBox="0 0 714 714" fill="none" xmlns="http://www.w3.org/2000/svg">
<path d="M570.761 390.277C570.761 267.64 471.915 168.222 349.982 168.222C228.048 168.222 124.473 267.64 124.473 390.277V528.872C124.46 533.572 126.31 538.083 129.614 541.406C132.918 544.729 137.403 546.589 142.075 546.576H167.221C171.893 546.589 176.378 544.729 179.682 541.406C182.986 538.083 184.836 533.572 184.823 528.872V413.747C184.823 403.969 192.703 396.044 202.425 396.044H238.232C247.953 396.044 255.834 403.969 255.834 413.747V528.872C255.821 533.572 257.671 538.083 260.975 541.406C264.279 544.729 268.763 546.589 273.436 546.576H298.582C303.254 546.589 307.739 544.729 311.043 541.406C314.347 538.083 316.197 533.572 316.184 528.872V493.92C316.184 458.952 334.732 426.64 364.84 409.157C394.95 391.673 432.046 391.673 462.154 409.157C492.264 426.64 510.811 458.952 510.811 493.92V528.872C510.811 538.649 518.692 546.576 528.414 546.576H553.259C562.98 546.576 570.862 538.649 570.862 528.872L570.761 390.277ZM251.559 343.01C248.265 348.355 243.747 352.829 238.383 356.059C229.035 361.454 217.811 362.47 207.655 358.842C206.179 358.382 204.775 357.718 203.481 356.869C191.881 350.464 184.673 338.211 184.673 324.901C184.673 311.591 191.881 299.339 203.481 292.933C204.835 292.063 206.309 291.399 207.856 290.96C221.057 286.292 235.749 289.589 245.726 299.458C252.74 305.973 256.716 315.147 256.689 324.75C256.678 331.194 254.904 337.512 251.559 343.01Z" fill="#171717"/>
<path d="M590.392 390.277C590.392 267.64 491.546 168.222 369.614 168.222C247.68 168.222 144.105 267.64 144.105 390.277V528.872C144.091 533.572 145.942 538.083 149.245 541.406C152.549 544.729 157.034 546.589 161.707 546.576H186.852C191.525 546.589 196.01 544.729 199.314 541.406C202.618 538.083 204.468 533.572 204.454 528.872V413.747C204.454 403.969 212.335 396.044 222.056 396.044H257.863C267.585 396.044 275.466 403.969 275.466 413.747V528.872C275.452 533.572 277.302 538.083 280.607 541.406C283.91 544.729 288.395 546.589 293.067 546.576H318.214C322.886 546.589 327.371 544.729 330.674 541.406C333.979 538.083 335.829 533.572 335.815 528.872V493.92C335.815 458.952 354.363 426.64 384.472 409.157C414.582 391.673 451.677 391.673 481.786 409.157C511.895 426.64 530.443 458.952 530.443 493.92V528.872C530.443 538.649 538.324 546.576 548.045 546.576H572.891C582.612 546.576 590.493 538.649 590.493 528.872L590.392 390.277ZM271.191 343.01C267.897 348.355 263.379 352.829 258.014 356.059C248.667 361.454 237.442 362.47 227.286 358.842C225.811 358.382 224.406 357.718 223.113 356.869C211.513 350.464 204.304 338.211 204.304 324.901C204.304 311.591 211.513 299.339 223.113 292.933C224.467 292.063 225.941 291.399 227.488 290.96C240.688 286.292 255.381 289.589 265.357 299.458C272.371 305.973 276.347 315.147 276.321 324.75C276.31 331.194 274.535 337.512 271.191 343.01Z" fill="#323232"/>
</svg>
